<svg width="28" height="28" viewBox="0 0 28 28" fill="none" xmlns="http://www.w3.org/2000/svg">
<g id="carbon:play-filled-alt">
<path id="Vector" d="M6.50002 24.0001C6.27901 24.0001 6.06705 23.9123 5.91076 23.756C5.75448 23.5997 5.66669 23.3878 5.66669 23.1668V4.83343C5.66671 4.68863 5.70447 4.54632 5.77624 4.42055C5.84801 4.29478 5.95132 4.18988 6.07598 4.1162C6.20064 4.04251 6.34235 4.00258 6.48714 4.00034C6.63193 3.99811 6.77481 4.03364 6.90169 4.10344L23.5684 13.2701C23.699 13.342 23.808 13.4477 23.8838 13.5761C23.9597 13.7045 23.9998 13.851 23.9998 14.0001C23.9998 14.1493 23.9597 14.2957 23.8838 14.4241C23.808 14.5525 23.699 14.6582 23.5684 14.7301L6.90169 23.8968C6.77865 23.9645 6.64048 24.0001 6.50002 24.0001Z" fill="#FFC93E"/>
</g>
</svg>
