<svg width="203" height="140" viewBox="0 0 203 140" fill="none" xmlns="http://www.w3.org/2000/svg">
<g id="Sketch-annotation-element-stroke-line-highlight-scribble-rectangle-1">
<path id="Vector" d="M195.375 51.9653C190.44 37.9536 183.822 18.5432 175.363 6.6056C135.008 24.4271 94.9072 42.4932 55.3675 62.13C40.3635 69.5815 25.3467 80.0688 9.45961 85.4253C15.6392 97.1181 21.2654 109.052 27.3411 120.771C29.8293 125.571 34.0284 129.975 35.8008 135.108C80.343 113.775 123.163 88.6819 168.577 69.1261C177.282 65.3779 185.337 60.0102 194.39 57.0095C170.888 65.7138 148.557 78.2319 126.038 89.1583C110.982 96.4633 94.7595 101.292 79.613 108.543C65.2911 115.399 52.2784 125.002 37.8598 131.545C26.3224 115.971 13.5921 100.583 3.19076 84.205C12.2346 79.7236 20.7611 74.1709 29.8441 69.8134C78.1949 46.6174 126.986 24.5219 176.386 3.71419C183.545 19.1722 186.924 35.7509 193.155 51.4529C184.409 36.1969 180.188 18.7883 171.85 3.40098C165.232 4.82485 158.698 9.01524 152.57 11.7674C136.423 19.0194 120.417 26.1438 104.627 34.1563C84.7673 44.2335 65.1501 54.574 45.4298 64.9397C31.913 72.0445 15.9806 78.1349 3.93388 87.7844C13.2321 103.921 22.7964 119.939 32.278 135.953" stroke="white" stroke-miterlimit="1.5" stroke-linecap="round" stroke-linejoin="round"/>
</g>
</svg>
